<?xml version="1.0" encoding="UTF-8" standalone="no"?>
<svg
   xmlns:dc="http://purl.org/dc/elements/1.1/"
   xmlns:cc="http://creativecommons.org/ns#"
   xmlns:rdf="http://www.w3.org/1999/02/22-rdf-syntax-ns#"
   xmlns:svg="http://www.w3.org/2000/svg"
   xmlns="http://www.w3.org/2000/svg"
   xmlns:sodipodi="http://sodipodi.sourceforge.net/DTD/sodipodi-0.dtd"
   xmlns:inkscape="http://www.inkscape.org/namespaces/inkscape"
   width="1600"
   height="1600"
   viewBox="0 0 423.33332 423.33335"
   version="1.1"
   id="svg157"
   inkscape:version="1.0.1 (0767f8302a, 2020-10-17)"
   sodipodi:docname="boo.svg">
  <defs
     id="defs151" />
  <sodipodi:namedview
     id="base"
     pagecolor="#ffffff"
     bordercolor="#666666"
     borderopacity="1.0"
     inkscape:pageopacity="0.0"
     inkscape:pageshadow="2"
     inkscape:zoom="0.66"
     inkscape:cx="635.8871"
     inkscape:cy="783.15453"
     inkscape:document-units="px"
     inkscape:current-layer="layer3"
     inkscape:document-rotation="0"
     showgrid="false"
     units="px"
     inkscape:pagecheckerboard="true"
     inkscape:window-width="1278"
     inkscape:window-height="1390"
     inkscape:window-x="0"
     inkscape:window-y="25"
     inkscape:window-maximized="0" />
  <metadata
     id="metadata154">
    <rdf:RDF>
      <cc:Work
         rdf:about="">
        <dc:format>image/svg+xml</dc:format>
        <dc:type
           rdf:resource="http://purl.org/dc/dcmitype/StillImage" />
        <dc:title></dc:title>
      </cc:Work>
    </rdf:RDF>
  </metadata>
  <g
     inkscape:label="Layer 1"
     inkscape:groupmode="layer"
     id="layer1"
     style="display:inline">
    <path
       id="shape0"
       fill="#ffffff"
       fill-rule="evenodd"
       stroke="#000000"
       stroke-width="10.861"
       stroke-linecap="square"
       stroke-linejoin="bevel"
       d="M 65.300087,390.3246 C 55.384486,376.93849 141.31374,248.50313 148.64906,219.16158 155.19674,192.97083 111.08383,118.87424 129.28114,82.479497 144.5279,51.986132 282.4977,14.503645 289.75867,19.948801 c 30.10523,16.089267 74.90439,68.01844 59.21033,115.100329 -3.59545,10.78404 -10.9266,17.96472 -13.28092,32.09526 -1.24336,7.4556 2.69036,19.97853 -0.55324,27.11507 -4.61363,10.14934 -19.67188,29.21937 -16.60142,41.50354 3.56374,14.2539 34.18825,114.66794 21.58162,127.2746 -3.12477,3.12478 -12.31475,1.24675 -15.49494,4.42694 -7.24404,7.24404 -7.16599,31.51376 -17.70789,42.05566 -19.26802,19.26803 -13.22887,-50.88468 -21.02728,-54.78331 -1.80561,-0.90283 -5.71105,3.09876 -6.64101,3.87373 -18.13441,15.11144 -41.22977,22.14051 -55.33657,40.39596 -1.19923,1.55109 -2.66209,2.88493 -3.87375,4.42697 -0.1052,0.13343 -4.06605,5.89433 -4.9802,4.98021 -12.37696,-12.37696 11.30783,-64.84894 -1.65968,-69.1707 -0.76707,-0.2556 -11.44249,-1.4651 -11.62124,-1.10762 -11.26257,22.52517 -35.66894,17.4081 -44.82281,26.56183 -7.90804,7.90815 -8.05851,20.78631 -13.83428,26.56184 -4.95551,4.95528 -13.24457,4.39076 -16.60106,7.74747 -7.24437,7.24405 0.0506,-37.12638 -7.19379,-29.88233 -17.35673,17.35718 -34.886537,48.37651 -47.5304,29.31213 -12.643848,-19.06438 3.425595,5.27324 -6.490053,-8.11178 z" />
  </g>
  <g
     inkscape:groupmode="layer"
     id="layer2"
     inkscape:label="Mouth">
    <path
       id="shape0-7"
       fill="none"
       stroke="#000000"
       stroke-width="9.23259"
       stroke-linecap="square"
       stroke-linejoin="bevel"
       d="m 239.73821,171.33575 c -27.53116,0 -33.39112,-7.57809 -53.67472,-27.86169" />
  </g>
  <g
     inkscape:groupmode="layer"
     id="layer3"
     inkscape:label="Eyes"
     style="display:inline">
    <circle
       style="fill:#000000;stroke-width:0.264583"
       id="path188"
       cx="199.74423"
       cy="102.94955"
       r="15.675306" />
    <circle
       style="display:inline;fill:#ffffff;stroke-width:0.264583"
       id="path191"
       cx="204.05737"
       cy="99.027222"
       r="5.0995846" />
    <circle
       style="fill:#000000;stroke-width:0.264583"
       id="circle212"
       cx="274.95731"
       cy="97.142578"
       r="15.675306" />
    <circle
       style="display:inline;fill:#ffffff;stroke-width:0.264583"
       id="circle214"
       cx="279.27045"
       cy="93.220253"
       r="5.0995846" />
  </g>
</svg>
